solid OpenSCAD_Model
  facet normal 0.5617513522606402 0.6073473770970692 -0.5617513522606354
    outer loop
      vertex 2 7 -4.828427124746191
      vertex 0.09999999999999999 13 -0.24142135623730954
      vertex 0.2414213562373095 13 -0.1
    endloop
  endfacet
  facet normal 0.5617513522606375 -0.60734737709707 -0.5617513522606374
    outer loop
      vertex 2 -7 -4.828427124746191
      vertex 4.82842712474619 -7 -2
      vertex 0.2414213562373095 -13 -0.1
    endloop
  endfacet
  facet normal 0.5617513522606374 -0.6073473770970699 -0.5617513522606373
    outer loop
      vertex 0.2414213562373095 -13 -0.1
      vertex 0.09999999999999999 -13 -0.24142135623730954
      vertex 2 -7 -4.828427124746191
    endloop
  endfacet
  facet normal 0.7071067811865477 0 -0.7071067811865474
    outer loop
      vertex 2 -7 -4.828427124746191
      vertex 2 7 -4.828427124746191
      vertex 4.82842712474619 -7 -2
    endloop
  endfacet
  facet normal 0.7071067811865474 0 0.7071067811865477
    outer loop
      vertex 2 -7 4.82842712474619
      vertex 4.828427124746191 -7 2
      vertex 2 7 4.82842712474619
    endloop
  endfacet
  facet normal 0 1 0
    outer loop
      vertex -0.09999999999999999 13 0.24142135623730954
      vertex -0.24142135623730954 13 -0.09999999999999999
      vertex -0.2414213562373095 13 0.1
    endloop
  endfacet
  facet normal 0.7944363810484195 0.60734737709707 -2.352004164906239e-16
    outer loop
      vertex 0.2414213562373095 13 -0.1
      vertex 4.828427124746191 7 2
      vertex 4.82842712474619 7 -2
    endloop
  endfacet
  facet normal -1.7640031236796794e-16 -0.6073473770970699 -0.7944363810484195
    outer loop
      vertex 2 -7 -4.828427124746191
      vertex -0.1 -13 -0.2414213562373095
      vertex -2 -7 -4.82842712474619
    endloop
  endfacet
  facet normal -0.5617513522606374 0.60734737709707 -0.5617513522606375
    outer loop
      vertex -2 7 -4.82842712474619
      vertex -4.828427124746191 7 -2
      vertex -0.1 13 -0.2414213562373095
    endloop
  endfacet
  facet normal 0.7944363810484195 -0.6073473770970699 -1.7640031236796794e-16
    outer loop
      vertex 4.82842712474619 -7 -2
      vertex 4.828427124746191 -7 2
      vertex 0.2414213562373095 -13 -0.1
    endloop
  endfacet
  facet normal -0.7944363810484195 -0.6073473770970699 1.7640031236796794e-16
    outer loop
      vertex -4.828427124746191 -7 -2
      vertex -0.2414213562373095 -13 0.1
      vertex -4.82842712474619 -7 2
    endloop
  endfacet
  facet normal 0 -0.60734737709707 -0.7944363810484195
    outer loop
      vertex 2 -7 -4.828427124746191
      vertex 0.09999999999999999 -13 -0.24142135623730954
      vertex -0.1 -13 -0.2414213562373095
    endloop
  endfacet
  facet normal -0.5617513522606375 0.60734737709707 0.5617513522606374
    outer loop
      vertex -2 7 4.828427124746191
      vertex -0.2414213562373095 13 0.1
      vertex -4.82842712474619 7 2
    endloop
  endfacet
  facet normal -0.5617513522606374 -0.6073473770970699 0.5617513522606373
    outer loop
      vertex -0.2414213562373095 -13 0.1
      vertex -0.09999999999999999 -13 0.24142135623730954
      vertex -2 -7 4.828427124746191
    endloop
  endfacet
  facet normal 0.5617513522606375 0.60734737709707 -0.5617513522606374
    outer loop
      vertex 4.82842712474619 7 -2
      vertex 2 7 -4.828427124746191
      vertex 0.2414213562373095 13 -0.1
    endloop
  endfacet
  facet normal 0.7071067811865477 0 -0.7071067811865474
    outer loop
      vertex 4.82842712474619 -7 -2
      vertex 2 7 -4.828427124746191
      vertex 4.82842712474619 7 -2
    endloop
  endfacet
  facet normal -0.5617513522606402 0.6073473770970692 0.5617513522606354
    outer loop
      vertex -2 7 4.828427124746191
      vertex -0.09999999999999999 13 0.24142135623730954
      vertex -0.2414213562373095 13 0.1
    endloop
  endfacet
  facet normal -0.5617513522606374 -0.60734737709707 -0.5617513522606374
    outer loop
      vertex -0.1 -13 -0.2414213562373095
      vertex -0.24142135623730954 -13 -0.09999999999999999
      vertex -4.828427124746191 -7 -2
    endloop
  endfacet
  facet normal 0 1 0
    outer loop
      vertex -0.1 13 -0.2414213562373095
      vertex -0.24142135623730954 13 -0.09999999999999999
      vertex 0.09999999999999999 13 -0.24142135623730954
    endloop
  endfacet
  facet normal -2.220446049250313e-16 0 -1
    outer loop
      vertex -2 -7 -4.82842712474619
      vertex -2 7 -4.82842712474619
      vertex 2 -7 -4.828427124746191
    endloop
  endfacet
  facet normal -0.7944363810484195 -0.60734737709707 0
    outer loop
      vertex -4.828427124746191 -7 -2
      vertex -0.24142135623730954 -13 -0.09999999999999999
      vertex -0.2414213562373095 -13 0.1
    endloop
  endfacet
  facet normal 1 0 -2.220446049250313e-16
    outer loop
      vertex 4.82842712474619 7 -2
      vertex 4.828427124746191 -7 2
      vertex 4.82842712474619 -7 -2
    endloop
  endfacet
  facet normal 0.7071067811865474 0 0.7071067811865477
    outer loop
      vertex 2 7 4.82842712474619
      vertex 4.828427124746191 -7 2
      vertex 4.828427124746191 7 2
    endloop
  endfacet
  facet normal 0.7944363810484195 -0.6073473770970699 -1.1025019522997995e-16
    outer loop
      vertex 0.2414213562373095 -13 -0.1
      vertex 4.828427124746191 -7 2
      vertex 0.24142135623730954 -13 0.09999999999999999
    endloop
  endfacet
  facet normal 2.220446049250313e-16 0 1
    outer loop
      vertex -2 7 4.828427124746191
      vertex -2 -7 4.828427124746191
      vertex 2 7 4.82842712474619
    endloop
  endfacet
  facet normal -2.220446049250313e-16 0 -1
    outer loop
      vertex 2 -7 -4.828427124746191
      vertex -2 7 -4.82842712474619
      vertex 2 7 -4.828427124746191
    endloop
  endfacet
  facet normal 0.5617513522606374 0.60734737709707 0.5617513522606375
    outer loop
      vertex 4.828427124746191 7 2
      vertex 0.1 13 0.2414213562373095
      vertex 2 7 4.82842712474619
    endloop
  endfacet
  facet normal 1.7640031236796794e-16 0.6073473770970699 0.7944363810484195
    outer loop
      vertex 2 7 4.82842712474619
      vertex 0.1 13 0.2414213562373095
      vertex -2 7 4.828427124746191
    endloop
  endfacet
  facet normal 0 -1 0
    outer loop
      vertex 0.09999999999999999 -13 -0.24142135623730954
      vertex -0.09999999999999999 -13 0.24142135623730954
      vertex -0.1 -13 -0.2414213562373095
    endloop
  endfacet
  facet normal 1 0 -2.220446049250313e-16
    outer loop
      vertex 4.828427124746191 7 2
      vertex 4.828427124746191 -7 2
      vertex 4.82842712474619 7 -2
    endloop
  endfacet
  facet normal 2.220446049250313e-16 0 1
    outer loop
      vertex 2 7 4.82842712474619
      vertex -2 -7 4.828427124746191
      vertex 2 -7 4.82842712474619
    endloop
  endfacet
  facet normal 1.7640031236796794e-16 -0.6073473770970699 0.7944363810484195
    outer loop
      vertex 2 -7 4.82842712474619
      vertex -2 -7 4.828427124746191
      vertex 0.1 -13 0.2414213562373095
    endloop
  endfacet
  facet normal 0 1 0
    outer loop
      vertex 0.24142135623730954 13 0.09999999999999999
      vertex -0.24142135623730954 13 -0.09999999999999999
      vertex 0.1 13 0.2414213562373095
    endloop
  endfacet
  facet normal 1.1025019522997995e-16 0.6073473770970699 0.7944363810484195
    outer loop
      vertex 0.1 13 0.2414213562373095
      vertex -0.09999999999999999 13 0.24142135623730954
      vertex -2 7 4.828427124746191
    endloop
  endfacet
  facet normal -0.5617513522606373 -0.60734737709707 -0.5617513522606378
    outer loop
      vertex -0.1 -13 -0.2414213562373095
      vertex -4.828427124746191 -7 -2
      vertex -2 -7 -4.82842712474619
    endloop
  endfacet
  facet normal 0 -0.60734737709707 0.7944363810484195
    outer loop
      vertex -2 -7 4.828427124746191
      vertex -0.09999999999999999 -13 0.24142135623730954
      vertex 0.1 -13 0.2414213562373095
    endloop
  endfacet
  facet normal -0.5617513522606378 -0.60734737709707 0.5617513522606373
    outer loop
      vertex -0.2414213562373095 -13 0.1
      vertex -2 -7 4.828427124746191
      vertex -4.82842712474619 -7 2
    endloop
  endfacet
  facet normal 0 -1 0
    outer loop
      vertex 0.1 -13 0.2414213562373095
      vertex -0.09999999999999999 -13 0.24142135623730954
      vertex 0.24142135623730954 -13 0.09999999999999999
    endloop
  endfacet
  facet normal -1 0 2.220446049250313e-16
    outer loop
      vertex -4.82842712474619 7 2
      vertex -4.828427124746191 7 -2
      vertex -4.82842712474619 -7 2
    endloop
  endfacet
  facet normal 0 1 0
    outer loop
      vertex 0.09999999999999999 13 -0.24142135623730954
      vertex -0.24142135623730954 13 -0.09999999999999999
      vertex 0.2414213562373095 13 -0.1
    endloop
  endfacet
  facet normal 0.5617513522606373 -0.60734737709707 0.5617513522606378
    outer loop
      vertex 0.1 -13 0.2414213562373095
      vertex 4.828427124746191 -7 2
      vertex 2 -7 4.82842712474619
    endloop
  endfacet
  facet normal 0.5617513522606374 -0.6073473770970699 0.5617513522606374
    outer loop
      vertex 0.24142135623730954 -13 0.09999999999999999
      vertex 4.828427124746191 -7 2
      vertex 0.1 -13 0.2414213562373095
    endloop
  endfacet
  facet normal -1.7640031236796794e-16 0.6073473770970699 -0.7944363810484195
    outer loop
      vertex -2 7 -4.82842712474619
      vertex -0.1 13 -0.2414213562373095
      vertex 2 7 -4.828427124746191
    endloop
  endfacet
  facet normal 0.5617513522606354 0.6073473770970692 0.5617513522606402
    outer loop
      vertex 4.828427124746191 7 2
      vertex 0.24142135623730954 13 0.09999999999999999
      vertex 0.1 13 0.2414213562373095
    endloop
  endfacet
  facet normal 0.7944363810484195 0.6073473770970699 -1.1025019522997995e-16
    outer loop
      vertex 0.2414213562373095 13 -0.1
      vertex 0.24142135623730954 13 0.09999999999999999
      vertex 4.828427124746191 7 2
    endloop
  endfacet
  facet normal 0 1 0
    outer loop
      vertex 0.2414213562373095 13 -0.1
      vertex -0.24142135623730954 13 -0.09999999999999999
      vertex 0.24142135623730954 13 0.09999999999999999
    endloop
  endfacet
  facet normal 0 -1 0
    outer loop
      vertex -0.1 -13 -0.2414213562373095
      vertex -0.09999999999999999 -13 0.24142135623730954
      vertex -0.24142135623730954 -13 -0.09999999999999999
    endloop
  endfacet
  facet normal 0 -1 0
    outer loop
      vertex -0.24142135623730954 -13 -0.09999999999999999
      vertex -0.09999999999999999 -13 0.24142135623730954
      vertex -0.2414213562373095 -13 0.1
    endloop
  endfacet
  facet normal -0.7071067811865477 0 0.7071067811865474
    outer loop
      vertex -4.82842712474619 7 2
      vertex -2 -7 4.828427124746191
      vertex -2 7 4.828427124746191
    endloop
  endfacet
  facet normal -0.7071067811865477 0 0.7071067811865474
    outer loop
      vertex -4.82842712474619 -7 2
      vertex -2 -7 4.828427124746191
      vertex -4.82842712474619 7 2
    endloop
  endfacet
  facet normal -0.7944363810484195 0.60734737709707 2.352004164906239e-16
    outer loop
      vertex -0.2414213562373095 13 0.1
      vertex -4.828427124746191 7 -2
      vertex -4.82842712474619 7 2
    endloop
  endfacet
  facet normal -0.7071067811865474 0 -0.7071067811865477
    outer loop
      vertex -2 -7 -4.82842712474619
      vertex -4.828427124746191 7 -2
      vertex -2 7 -4.82842712474619
    endloop
  endfacet
  facet normal -0.7071067811865474 0 -0.7071067811865477
    outer loop
      vertex -4.828427124746191 -7 -2
      vertex -4.828427124746191 7 -2
      vertex -2 -7 -4.82842712474619
    endloop
  endfacet
  facet normal -1 0 2.220446049250313e-16
    outer loop
      vertex -4.82842712474619 -7 2
      vertex -4.828427124746191 7 -2
      vertex -4.828427124746191 -7 -2
    endloop
  endfacet
  facet normal 0 -1 0
    outer loop
      vertex 0.2414213562373095 -13 -0.1
      vertex -0.09999999999999999 -13 0.24142135623730954
      vertex 0.09999999999999999 -13 -0.24142135623730954
    endloop
  endfacet
  facet normal 0 -1 0
    outer loop
      vertex 0.24142135623730954 -13 0.09999999999999999
      vertex -0.09999999999999999 -13 0.24142135623730954
      vertex 0.2414213562373095 -13 -0.1
    endloop
  endfacet
  facet normal -1.1025019522997995e-16 0.6073473770970699 -0.7944363810484195
    outer loop
      vertex -0.1 13 -0.2414213562373095
      vertex 0.09999999999999999 13 -0.24142135623730954
      vertex 2 7 -4.828427124746191
    endloop
  endfacet
  facet normal 0 1 0
    outer loop
      vertex 0.1 13 0.2414213562373095
      vertex -0.24142135623730954 13 -0.09999999999999999
      vertex -0.09999999999999999 13 0.24142135623730954
    endloop
  endfacet
  facet normal -0.5617513522606354 0.6073473770970692 -0.5617513522606402
    outer loop
      vertex -4.828427124746191 7 -2
      vertex -0.24142135623730954 13 -0.09999999999999999
      vertex -0.1 13 -0.2414213562373095
    endloop
  endfacet
  facet normal -0.7944363810484195 0.6073473770970699 1.1025019522997995e-16
    outer loop
      vertex -0.2414213562373095 13 0.1
      vertex -0.24142135623730954 13 -0.09999999999999999
      vertex -4.828427124746191 7 -2
    endloop
  endfacet
endsolid OpenSCAD_Model
