solid OpenSCAD_Model
  facet normal 0 1 0
    outer loop
      vertex 109.33220007828605 131.1 2.005331737028868
      vertex 109.39047619047618 131.1 0
      vertex 94.60952380952381 131.1 0
    endloop
  endfacet
  facet normal 0 1 0
    outer loop
      vertex 94.66779992171396 131.1 2.005331737028865
      vertex 94.8417092091827 131.1 3.9790381946376776
      vertex 94.60952380952381 131.1 0
    endloop
  endfacet
  facet normal 0 1 0
    outer loop
      vertex 94.8417092091827 131.1 3.9790381946376776
      vertex 94.84485519791025 131.1 4
      vertex 94.60952380952381 131.1 0
    endloop
  endfacet
  facet normal 0 1 0
    outer loop
      vertex 109.33220007828605 131.1 2.005331737028868
      vertex 94.60952380952381 131.1 0
      vertex 109.15829079081732 131.1 3.9790381946376767
    endloop
  endfacet
  facet normal 0 1 0
    outer loop
      vertex 109.15829079081732 131.1 3.9790381946376767
      vertex 94.60952380952381 131.1 0
      vertex 109.15514480208974 131.1 4
    endloop
  endfacet
  facet normal 0 1 0
    outer loop
      vertex 94.84485519791025 131.1 4
      vertex 95.12850901857827 131.1 5.889992842954846
      vertex 94.60952380952381 131.1 0
    endloop
  endfacet
  facet normal 0 1 0
    outer loop
      vertex 109.15514480208974 131.1 4
      vertex 94.60952380952381 131.1 0
      vertex 108.87149098142174 131.1 5.889992842954848
    endloop
  endfacet
  facet normal -0.9889244601223538 0 0.14841971624993508
    outer loop
      vertex 94.84485519791025 126.94285714285715 4
      vertex 95.12850901857827 126.94285714285715 5.889992842954846
      vertex 94.84485519791025 131.1 4
    endloop
  endfacet
  facet normal 0 1 0
    outer loop
      vertex 95.12850901857827 131.1 5.889992842954846
      vertex 95.52367634558058 131.1 7.708058785627446
      vertex 94.60952380952381 131.1 0
    endloop
  endfacet
  facet normal -0.9889244601223538 0 0.14841971624993508
    outer loop
      vertex 94.84485519791025 131.1 4
      vertex 95.12850901857827 126.94285714285715 5.889992842954846
      vertex 95.12850901857827 131.1 5.889992842954846
    endloop
  endfacet
  facet normal 0 1 0
    outer loop
      vertex 108.87149098142174 131.1 5.889992842954848
      vertex 94.60952380952381 131.1 0
      vertex 108.47632365441942 131.1 7.708058785627445
    endloop
  endfacet
  facet normal 0 1 0
    outer loop
      vertex 95.52367634558058 131.1 7.708058785627446
      vertex 96.02097916538135 131.1 9.40456403667957
      vertex 94.60952380952381 131.1 0
    endloop
  endfacet
  facet normal -0.9771835485529498 0 0.21239659233957822
    outer loop
      vertex 95.12850901857827 126.94285714285715 5.889992842954846
      vertex 95.52367634558058 126.94285714285715 7.708058785627446
      vertex 95.12850901857827 131.1 5.889992842954846
    endloop
  endfacet
  facet normal 0 1 0
    outer loop
      vertex 96.02097916538135 131.1 9.40456403667957
      vertex 96.61257471543794 131.1 10.952753694859016
      vertex 94.60952380952381 131.1 0
    endloop
  endfacet
  facet normal 0 1 0
    outer loop
      vertex 108.47632365441942 131.1 7.708058785627445
      vertex 94.60952380952381 131.1 0
      vertex 107.97902083461865 131.1 9.40456403667957
    endloop
  endfacet
  facet normal 0 1 0
    outer loop
      vertex 107.97902083461865 131.1 9.40456403667957
      vertex 94.60952380952381 131.1 0
      vertex 107.38742528456204 131.1 10.95275369485902
    endloop
  endfacet
  facet normal -0.9771835485529498 0 0.21239659233957822
    outer loop
      vertex 95.12850901857827 131.1 5.889992842954846
      vertex 95.52367634558058 126.94285714285715 7.708058785627446
      vertex 95.52367634558058 131.1 7.708058785627446
    endloop
  endfacet
  facet normal 0 1 0
    outer loop
      vertex 96.61257471543794 131.1 10.952753694859016
      vertex 97.28913318052396 131.1 12.32821188441263
      vertex 94.60952380952381 131.1 0
    endloop
  endfacet
  facet normal 0 1 0
    outer loop
      vertex 107.38742528456204 131.1 10.95275369485902
      vertex 94.60952380952381 131.1 0
      vertex 106.71086681947604 131.1 12.328211884412626
    endloop
  endfacet
  facet normal -0.9596207141656197 0 0.2812971470603038
    outer loop
      vertex 95.52367634558058 126.94285714285715 7.708058785627446
      vertex 96.02097916538135 126.94285714285715 9.40456403667957
      vertex 95.52367634558058 131.1 7.708058785627446
    endloop
  endfacet
  facet normal 0 1 0
    outer loop
      vertex 97.28913318052396 131.1 12.32821188441263
      vertex 98.03998482948856 131.1 13.50924680803224
      vertex 94.60952380952381 131.1 0
    endloop
  endfacet
  facet normal -0.9596207141656197 0 0.2812971470603038
    outer loop
      vertex 95.52367634558058 131.1 7.708058785627446
      vertex 96.02097916538135 126.94285714285715 9.40456403667957
      vertex 96.02097916538135 131.1 9.40456403667957
    endloop
  endfacet
  facet normal 0 1 0
    outer loop
      vertex 98.03998482948856 131.1 13.50924680803224
      vertex 98.85328828329051 131.1 14.477232839456311
      vertex 94.60952380952381 131.1 0
    endloop
  endfacet
  facet normal 0 1 0
    outer loop
      vertex 106.71086681947604 131.1 12.328211884412626
      vertex 94.60952380952381 131.1 0
      vertex 105.96001517051144 131.1 13.509246808032241
    endloop
  endfacet
  facet normal 0 1 0
    outer loop
      vertex 105.96001517051144 131.1 13.509246808032241
      vertex 94.60952380952381 131.1 0
      vertex 105.14671171670949 131.1 14.477232839456311
    endloop
  endfacet
  facet normal -0.9341241371793882 0 0.35694831045805997
    outer loop
      vertex 96.24850766254121 126.59642857142858 10
      vertex 96.61257471543794 126.59642857142858 10.952753694859016
      vertex 96.24850766254121 126.94285714285715 10
    endloop
  endfacet
  facet normal -0.9341241371793947 0 0.35694831045804304
    outer loop
      vertex 96.02097916538135 126.94285714285715 9.40456403667957
      vertex 96.24850766254121 126.94285714285715 10
      vertex 96.02097916538135 131.1 9.40456403667957
    endloop
  endfacet
  facet normal 0 1 0
    outer loop
      vertex 98.85328828329051 131.1 14.477232839456311
      vertex 99.71621726061944 131.1 15.216904260722456
      vertex 94.60952380952381 131.1 0
    endloop
  endfacet
  facet normal -0.9341241371793879 2.9280165885069238e-15 0.35694831045806097
    outer loop
      vertex 96.02097916538135 131.1 9.40456403667957
      vertex 96.24850766254121 126.94285714285715 10
      vertex 96.61257471543794 126.59642857142858 10.952753694859016
    endloop
  endfacet
  facet normal 0 1 0
    outer loop
      vertex 99.71621726061944 131.1 15.216904260722456
      vertex 100.61516285601407 131.1 15.71659601165902
      vertex 94.60952380952381 131.1 0
    endloop
  endfacet
  facet normal -0.9341241371793907 0 0.3569483104580534
    outer loop
      vertex 96.02097916538135 131.1 9.40456403667957
      vertex 96.61257471543794 126.59642857142858 10.952753694859016
      vertex 96.61257471543794 131.1 10.952753694859016
    endloop
  endfacet
  facet normal 0 -1 0
    outer loop
      vertex 96.24850766254121 126.59642857142858 10
      vertex 107.75149233745877 126.59642857142858 10
      vertex 96.61257471543794 126.59642857142858 10.952753694859016
    endloop
  endfacet
  facet normal 0 1 0
    outer loop
      vertex 105.14671171670949 131.1 14.477232839456311
      vertex 94.60952380952381 131.1 0
      vertex 104.28378273938056 131.1 15.216904260722456
    endloop
  endfacet
  facet normal 0 1 0
    outer loop
      vertex 104.28378273938056 131.1 15.216904260722456
      vertex 94.60952380952381 131.1 0
      vertex 103.38483714398593 131.1 15.71659601165902
    endloop
  endfacet
  facet normal 0 1 0
    outer loop
      vertex 100.61516285601407 131.1 15.71659601165902
      vertex 101.53594816043098 131.1 15.968427654852345
      vertex 94.60952380952381 131.1 0
    endloop
  endfacet
  facet normal 0 1 0
    outer loop
      vertex 101.53594816043098 131.1 15.968427654852345
      vertex 102.46405183956902 131.1 15.968427654852345
      vertex 94.60952380952381 131.1 0
    endloop
  endfacet
  facet normal 0 1 0
    outer loop
      vertex 103.38483714398593 131.1 15.71659601165902
      vertex 94.60952380952381 131.1 0
      vertex 102.46405183956902 131.1 15.968427654852345
    endloop
  endfacet
  facet normal -0.8973231943174704 0 0.4413740872999808
    outer loop
      vertex 96.61257471543794 126.59642857142858 10.952753694859016
      vertex 97.28913318052396 126.59642857142858 12.32821188441263
      vertex 97.28913318052396 131.1 12.32821188441263
    endloop
  endfacet
  facet normal -0.8973231943174704 0 0.4413740872999808
    outer loop
      vertex 96.61257471543794 126.59642857142858 10.952753694859016
      vertex 97.28913318052396 131.1 12.32821188441263
      vertex 96.61257471543794 131.1 10.952753694859016
    endloop
  endfacet
  facet normal 0 -1 0
    outer loop
      vertex 96.61257471543794 126.59642857142858 10.952753694859016
      vertex 107.75149233745877 126.59642857142858 10
      vertex 97.28913318052396 126.59642857142858 12.32821188441263
    endloop
  endfacet
  facet normal 0 -1 0
    outer loop
      vertex 97.28913318052396 126.59642857142858 12.32821188441263
      vertex 107.75149233745877 126.59642857142858 10
      vertex 98.03998482948856 126.59642857142858 13.50924680803224
    endloop
  endfacet
  facet normal -0.8438931473028551 0 0.5365112822068904
    outer loop
      vertex 97.28913318052396 126.59642857142858 12.32821188441263
      vertex 98.03998482948856 126.59642857142858 13.50924680803224
      vertex 98.03998482948856 131.1 13.50924680803224
    endloop
  endfacet
  facet normal -0.8438931473028551 0 0.5365112822068904
    outer loop
      vertex 97.28913318052396 126.59642857142858 12.32821188441263
      vertex 98.03998482948856 131.1 13.50924680803224
      vertex 97.28913318052396 131.1 12.32821188441263
    endloop
  endfacet
  facet normal 0 -1 0
    outer loop
      vertex 98.03998482948856 126.59642857142858 13.50924680803224
      vertex 107.75149233745877 126.59642857142858 10
      vertex 98.85328828329051 126.59642857142858 14.477232839456311
    endloop
  endfacet
  facet normal 0 -1 0
    outer loop
      vertex 98.85328828329051 126.59642857142858 14.477232839456311
      vertex 107.75149233745877 126.59642857142858 10
      vertex 99.71621726061944 126.59642857142858 15.216904260722456
    endloop
  endfacet
  facet normal -0.7656288262732333 0 0.6432825976034727
    outer loop
      vertex 98.03998482948856 126.59642857142858 13.50924680803224
      vertex 98.85328828329051 131.1 14.477232839456311
      vertex 98.03998482948856 131.1 13.50924680803224
    endloop
  endfacet
  facet normal 0 -1 0
    outer loop
      vertex 99.71621726061944 126.59642857142858 15.216904260722456
      vertex 107.75149233745877 126.59642857142858 10
      vertex 100.61516285601407 126.59642857142858 15.71659601165902
    endloop
  endfacet
  facet normal 0 -1 0
    outer loop
      vertex 100.61516285601407 126.59642857142858 15.71659601165902
      vertex 107.75149233745877 126.59642857142858 10
      vertex 101.53594816043098 126.59642857142858 15.968427654852345
    endloop
  endfacet
  facet normal 0 -1 0
    outer loop
      vertex 101.53594816043098 126.59642857142858 15.968427654852345
      vertex 107.75149233745877 126.59642857142858 10
      vertex 102.46405183956902 126.59642857142858 15.968427654852345
    endloop
  endfacet
  facet normal 0 -1 0
    outer loop
      vertex 107.75149233745877 126.59642857142858 10
      vertex 103.38483714398593 126.59642857142858 15.71659601165902
      vertex 102.46405183956902 126.59642857142858 15.968427654852345
    endloop
  endfacet
  facet normal -0.7656288262732333 0 0.6432825976034727
    outer loop
      vertex 98.03998482948856 126.59642857142858 13.50924680803224
      vertex 98.85328828329051 126.59642857142858 14.477232839456311
      vertex 98.85328828329051 131.1 14.477232839456311
    endloop
  endfacet
  facet normal -0.6508005093059931 0 0.7592487715413572
    outer loop
      vertex 98.85328828329051 126.59642857142858 14.477232839456311
      vertex 99.71621726061944 126.59642857142858 15.216904260722456
      vertex 99.71621726061944 131.1 15.216904260722456
    endloop
  endfacet
  facet normal -0.6508005093059931 0 0.7592487715413572
    outer loop
      vertex 98.85328828329051 126.59642857142858 14.477232839456311
      vertex 99.71621726061944 131.1 15.216904260722456
      vertex 98.85328828329051 131.1 14.477232839456311
    endloop
  endfacet
  facet normal 0.6508005093059931 0 0.7592487715413572
    outer loop
      vertex 105.14671171670949 126.59642857142858 14.477232839456311
      vertex 105.14671171670949 131.1 14.477232839456311
      vertex 104.28378273938056 126.59642857142858 15.216904260722456
    endloop
  endfacet
  facet normal 0.6508005093059931 0 0.7592487715413572
    outer loop
      vertex 105.14671171670949 131.1 14.477232839456311
      vertex 104.28378273938056 131.1 15.216904260722456
      vertex 104.28378273938056 126.59642857142858 15.216904260722456
    endloop
  endfacet
  facet normal -0.4858491184553989 0 0.8740426958084553
    outer loop
      vertex 99.71621726061944 126.59642857142858 15.216904260722456
      vertex 100.61516285601407 126.59642857142858 15.71659601165902
      vertex 100.61516285601407 131.1 15.71659601165902
    endloop
  endfacet
  facet normal -0.26380803129628205 0 0.9645752031975421
    outer loop
      vertex 100.61516285601407 126.59642857142858 15.71659601165902
      vertex 101.53594816043098 126.59642857142858 15.968427654852345
      vertex 101.53594816043098 131.1 15.968427654852345
    endloop
  endfacet
  facet normal -0.4858491184553989 0 0.8740426958084553
    outer loop
      vertex 99.71621726061944 126.59642857142858 15.216904260722456
      vertex 100.61516285601407 131.1 15.71659601165902
      vertex 99.71621726061944 131.1 15.216904260722456
    endloop
  endfacet
  facet normal -0.26380803129628205 0 0.9645752031975421
    outer loop
      vertex 100.61516285601407 126.59642857142858 15.71659601165902
      vertex 101.53594816043098 131.1 15.968427654852345
      vertex 100.61516285601407 131.1 15.71659601165902
    endloop
  endfacet
  facet normal 0.4858491184553989 0 0.8740426958084553
    outer loop
      vertex 104.28378273938056 126.59642857142858 15.216904260722456
      vertex 104.28378273938056 131.1 15.216904260722456
      vertex 103.38483714398593 126.59642857142858 15.71659601165902
    endloop
  endfacet
  facet normal 0.26380803129628205 0 0.9645752031975421
    outer loop
      vertex 103.38483714398593 126.59642857142858 15.71659601165902
      vertex 103.38483714398593 131.1 15.71659601165902
      vertex 102.46405183956902 126.59642857142858 15.968427654852345
    endloop
  endfacet
  facet normal 0 0 1
    outer loop
      vertex 101.53594816043098 126.59642857142858 15.968427654852345
      vertex 102.46405183956902 126.59642857142858 15.968427654852345
      vertex 102.46405183956902 131.1 15.968427654852345
    endloop
  endfacet
  facet normal 0.4858491184553989 0 0.8740426958084553
    outer loop
      vertex 103.38483714398593 126.59642857142858 15.71659601165902
      vertex 104.28378273938056 131.1 15.216904260722456
      vertex 103.38483714398593 131.1 15.71659601165902
    endloop
  endfacet
  facet normal 0 0 1
    outer loop
      vertex 101.53594816043098 126.59642857142858 15.968427654852345
      vertex 102.46405183956902 131.1 15.968427654852345
      vertex 101.53594816043098 131.1 15.968427654852345
    endloop
  endfacet
  facet normal 0.26380803129628205 0 0.9645752031975421
    outer loop
      vertex 102.46405183956902 126.59642857142858 15.968427654852345
      vertex 103.38483714398593 131.1 15.71659601165902
      vertex 102.46405183956902 131.1 15.968427654852345
    endloop
  endfacet
  facet normal 0.9889244601223559 0 0.1484197162499204
    outer loop
      vertex 109.15514480208974 126.94285714285715 4
      vertex 109.15514480208974 131.1 4
      vertex 108.87149098142174 131.1 5.889992842954848
    endloop
  endfacet
  facet normal 0.9889244601223559 0 0.1484197162499204
    outer loop
      vertex 109.15514480208974 126.94285714285715 4
      vertex 108.87149098142174 131.1 5.889992842954848
      vertex 108.87149098142174 126.94285714285715 5.889992842954848
    endloop
  endfacet
  facet normal 0.9771835485529481 0 0.21239659233958583
    outer loop
      vertex 108.87149098142174 126.94285714285715 5.889992842954848
      vertex 108.87149098142174 131.1 5.889992842954848
      vertex 108.47632365441942 131.1 7.708058785627445
    endloop
  endfacet
  facet normal 0.9771835485529481 0 0.21239659233958583
    outer loop
      vertex 108.87149098142174 126.94285714285715 5.889992842954848
      vertex 108.47632365441942 131.1 7.708058785627445
      vertex 108.47632365441942 126.94285714285715 7.708058785627445
    endloop
  endfacet
  facet normal 0.9596207141656197 0 0.2812971470603036
    outer loop
      vertex 108.47632365441942 126.94285714285715 7.708058785627445
      vertex 108.47632365441942 131.1 7.708058785627445
      vertex 107.97902083461865 131.1 9.40456403667957
    endloop
  endfacet
  facet normal 0.9596207141656197 0 0.2812971470603036
    outer loop
      vertex 108.47632365441942 126.94285714285715 7.708058785627445
      vertex 107.97902083461865 131.1 9.40456403667957
      vertex 107.97902083461865 126.94285714285715 9.40456403667957
    endloop
  endfacet
  facet normal 0.9341241371793887 3.8318728575644143e-14 0.3569483104580588
    outer loop
      vertex 107.75149233745877 126.59642857142858 10
      vertex 107.75149233745876 126.94285714285715 10
      vertex 107.38742528456204 126.59642857142858 10.95275369485902
    endloop
  endfacet
  facet normal 0.934124137179388 0 0.3569483104580602
    outer loop
      vertex 107.97902083461865 126.94285714285715 9.40456403667957
      vertex 107.97902083461865 131.1 9.40456403667957
      vertex 107.38742528456204 131.1 10.95275369485902
    endloop
  endfacet
  facet normal 0.9341241371793798 -9.259277218976455e-15 0.35694831045808195
    outer loop
      vertex 107.97902083461865 126.94285714285715 9.40456403667957
      vertex 107.38742528456204 131.1 10.95275369485902
      vertex 107.75149233745876 126.94285714285715 10
    endloop
  endfacet
  facet normal 0.9341241371793934 0 0.3569483104580467
    outer loop
      vertex 107.75149233745876 126.94285714285715 10
      vertex 107.38742528456204 131.1 10.95275369485902
      vertex 107.38742528456204 126.59642857142858 10.95275369485902
    endloop
  endfacet
  facet normal 0 -1 0
    outer loop
      vertex 107.75149233745877 126.59642857142858 10
      vertex 107.38742528456204 126.59642857142858 10.95275369485902
      vertex 106.71086681947604 126.59642857142858 12.328211884412626
    endloop
  endfacet
  facet normal 0 -1 0
    outer loop
      vertex 107.75149233745877 126.59642857142858 10
      vertex 106.71086681947604 126.59642857142858 12.328211884412626
      vertex 105.96001517051144 126.59642857142858 13.509246808032241
    endloop
  endfacet
  facet normal 0.8973231943174732 0 0.4413740872999751
    outer loop
      vertex 107.38742528456204 126.59642857142858 10.95275369485902
      vertex 107.38742528456204 131.1 10.95275369485902
      vertex 106.71086681947604 126.59642857142858 12.328211884412626
    endloop
  endfacet
  facet normal 0.8973231943174732 0 0.4413740872999751
    outer loop
      vertex 107.38742528456204 131.1 10.95275369485902
      vertex 106.71086681947604 131.1 12.328211884412626
      vertex 106.71086681947604 126.59642857142858 12.328211884412626
    endloop
  endfacet
  facet normal 0 -1 0
    outer loop
      vertex 107.75149233745877 126.59642857142858 10
      vertex 105.96001517051144 126.59642857142858 13.509246808032241
      vertex 105.14671171670949 126.59642857142858 14.477232839456311
    endloop
  endfacet
  facet normal 0 -1 0
    outer loop
      vertex 107.75149233745877 126.59642857142858 10
      vertex 105.14671171670949 126.59642857142858 14.477232839456311
      vertex 104.28378273938056 126.59642857142858 15.216904260722456
    endloop
  endfacet
  facet normal 0.8438931473028564 0 0.5365112822068887
    outer loop
      vertex 106.71086681947604 126.59642857142858 12.328211884412626
      vertex 106.71086681947604 131.1 12.328211884412626
      vertex 105.96001517051144 126.59642857142858 13.509246808032241
    endloop
  endfacet
  facet normal 0.8438931473028564 0 0.5365112822068887
    outer loop
      vertex 106.71086681947604 131.1 12.328211884412626
      vertex 105.96001517051144 131.1 13.509246808032241
      vertex 105.96001517051144 126.59642857142858 13.509246808032241
    endloop
  endfacet
  facet normal 0 -1 0
    outer loop
      vertex 107.75149233745877 126.59642857142858 10
      vertex 104.28378273938056 126.59642857142858 15.216904260722456
      vertex 103.38483714398593 126.59642857142858 15.71659601165902
    endloop
  endfacet
  facet normal 0.7656288262732327 0 0.6432825976034734
    outer loop
      vertex 105.96001517051144 126.59642857142858 13.509246808032241
      vertex 105.96001517051144 131.1 13.509246808032241
      vertex 105.14671171670949 126.59642857142858 14.477232839456311
    endloop
  endfacet
  facet normal 0.7656288262732327 0 0.6432825976034734
    outer loop
      vertex 105.96001517051144 131.1 13.509246808032241
      vertex 105.14671171670949 131.1 14.477232839456311
      vertex 105.14671171670949 126.59642857142858 14.477232839456311
    endloop
  endfacet
  facet normal 0 -1 0
    outer loop
      vertex 94.66779992171396 5 2.005331737028865
      vertex 94.60952380952381 5 0
      vertex 109.39047619047618 5 0
    endloop
  endfacet
  facet normal 0 -1 0
    outer loop
      vertex 94.66779992171396 5 2.005331737028865
      vertex 109.39047619047618 5 0
      vertex 94.8417092091827 5 3.9790381946376776
    endloop
  endfacet
  facet normal 0 -1 0
    outer loop
      vertex 94.8417092091827 5 3.9790381946376776
      vertex 109.39047619047618 5 0
      vertex 94.84485519791025 5 4
    endloop
  endfacet
  facet normal 0 -1 0
    outer loop
      vertex 94.84485519791025 5 4
      vertex 109.39047619047618 5 0
      vertex 95.12850901857827 5 5.889992842954846
    endloop
  endfacet
  facet normal -0.9889244601223537 0 0.14841971624993508
    outer loop
      vertex 94.84485519791025 5 4
      vertex 95.12850901857827 9.503571428571428 5.889992842954846
      vertex 94.84485519791025 9.503571428571428 4
    endloop
  endfacet
  facet normal -0.9889244601223537 0 0.14841971624993508
    outer loop
      vertex 94.84485519791025 5 4
      vertex 95.12850901857827 5 5.889992842954846
      vertex 95.12850901857827 9.503571428571428 5.889992842954846
    endloop
  endfacet
  facet normal 0 -1 0
    outer loop
      vertex 95.12850901857827 5 5.889992842954846
      vertex 109.39047619047618 5 0
      vertex 95.52367634558058 5 7.708058785627446
    endloop
  endfacet
  facet normal 0 1 0
    outer loop
      vertex 94.84485519791025 9.503571428571428 4
      vertex 108.87149098142174 9.503571428571428 5.889992842954848
      vertex 109.15514480208974 9.503571428571428 4
    endloop
  endfacet
  facet normal -0.9771835485529498 0 0.21239659233957822
    outer loop
      vertex 95.12850901857827 5 5.889992842954846
      vertex 95.52367634558058 5 7.708058785627446
      vertex 95.12850901857827 9.503571428571428 5.889992842954846
    endloop
  endfacet
  facet normal 0 -1 0
    outer loop
      vertex 95.52367634558058 5 7.708058785627446
      vertex 109.39047619047618 5 0
      vertex 96.02097916538135 5 9.40456403667957
    endloop
  endfacet
  facet normal 0 -1 0
    outer loop
      vertex 96.02097916538135 5 9.40456403667957
      vertex 109.39047619047618 5 0
      vertex 96.61257471543794 5 10.952753694859016
    endloop
  endfacet
  facet normal -0.9771835485529498 0 0.21239659233957822
    outer loop
      vertex 95.12850901857827 9.503571428571428 5.889992842954846
      vertex 95.52367634558058 5 7.708058785627446
      vertex 95.52367634558058 9.503571428571428 7.708058785627446
    endloop
  endfacet
  facet normal 0 -1 0
    outer loop
      vertex 96.61257471543794 5 10.952753694859016
      vertex 109.39047619047618 5 0
      vertex 97.28913318052396 5 12.32821188441263
    endloop
  endfacet
  facet normal 0 1 0
    outer loop
      vertex 94.84485519791025 9.503571428571428 4
      vertex 95.12850901857827 9.503571428571428 5.889992842954846
      vertex 95.52367634558058 9.503571428571428 7.708058785627446
    endloop
  endfacet
  facet normal 0 1 0
    outer loop
      vertex 94.84485519791025 9.503571428571428 4
      vertex 108.47632365441942 9.503571428571428 7.708058785627445
      vertex 108.87149098142174 9.503571428571428 5.889992842954848
    endloop
  endfacet
  facet normal 0 1 0
    outer loop
      vertex 94.84485519791025 9.503571428571428 4
      vertex 95.52367634558058 9.503571428571428 7.708058785627446
      vertex 96.02097916538135 9.503571428571428 9.40456403667957
    endloop
  endfacet
  facet normal 0 1 0
    outer loop
      vertex 94.84485519791025 9.503571428571428 4
      vertex 107.97902083461865 9.503571428571428 9.40456403667957
      vertex 108.47632365441942 9.503571428571428 7.708058785627445
    endloop
  endfacet
  facet normal -0.9596207141656196 0 0.2812971470603038
    outer loop
      vertex 95.52367634558058 5 7.708058785627446
      vertex 96.02097916538135 5 9.40456403667957
      vertex 95.52367634558058 9.503571428571428 7.708058785627446
    endloop
  endfacet
  facet normal -0.9596207141656196 0 0.2812971470603038
    outer loop
      vertex 95.52367634558058 9.503571428571428 7.708058785627446
      vertex 96.02097916538135 5 9.40456403667957
      vertex 96.02097916538135 9.503571428571428 9.40456403667957
    endloop
  endfacet
  facet normal 0 -1 0
    outer loop
      vertex 97.28913318052396 5 12.32821188441263
      vertex 109.39047619047618 5 0
      vertex 98.03998482948856 5 13.50924680803224
    endloop
  endfacet
  facet normal 0 -1 0
    outer loop
      vertex 98.03998482948856 5 13.50924680803224
      vertex 109.39047619047618 5 0
      vertex 98.85328828329051 5 14.477232839456311
    endloop
  endfacet
  facet normal -0.9341241371793907 0 0.3569483104580535
    outer loop
      vertex 96.02097916538135 5 9.40456403667957
      vertex 96.61257471543794 5 10.952753694859016
      vertex 96.02097916538135 9.503571428571428 9.40456403667957
    endloop
  endfacet
  facet normal -0.9341241371793907 0 0.3569483104580535
    outer loop
      vertex 96.02097916538135 9.503571428571428 9.40456403667957
      vertex 96.61257471543794 5 10.952753694859016
      vertex 96.61257471543794 9.503571428571428 10.952753694859016
    endloop
  endfacet
  facet normal 0 -1 0
    outer loop
      vertex 98.85328828329051 5 14.477232839456311
      vertex 109.39047619047618 5 0
      vertex 99.71621726061944 5 15.216904260722456
    endloop
  endfacet
  facet normal 0 -1 0
    outer loop
      vertex 99.71621726061944 5 15.216904260722456
      vertex 109.39047619047618 5 0
      vertex 100.61516285601407 5 15.71659601165902
    endloop
  endfacet
  facet normal 0 -1 0
    outer loop
      vertex 100.61516285601407 5 15.71659601165902
      vertex 109.39047619047618 5 0
      vertex 101.53594816043098 5 15.968427654852345
    endloop
  endfacet
  facet normal 0 -1 0
    outer loop
      vertex 101.53594816043098 5 15.968427654852345
      vertex 109.39047619047618 5 0
      vertex 102.46405183956902 5 15.968427654852345
    endloop
  endfacet
  facet normal 0 1 0
    outer loop
      vertex 94.84485519791025 9.503571428571428 4
      vertex 96.02097916538135 9.503571428571428 9.40456403667957
      vertex 96.61257471543794 9.503571428571428 10.952753694859016
    endloop
  endfacet
  facet normal 0 1 0
    outer loop
      vertex 94.84485519791025 9.503571428571428 4
      vertex 96.61257471543794 9.503571428571428 10.952753694859016
      vertex 97.28913318052396 9.503571428571428 12.32821188441263
    endloop
  endfacet
  facet normal 0 1 0
    outer loop
      vertex 94.84485519791025 9.503571428571428 4
      vertex 107.38742528456204 9.503571428571428 10.95275369485902
      vertex 107.97902083461865 9.503571428571428 9.40456403667957
    endloop
  endfacet
  facet normal 0 1 0
    outer loop
      vertex 94.84485519791025 9.503571428571428 4
      vertex 106.71086681947604 9.503571428571428 12.328211884412626
      vertex 107.38742528456204 9.503571428571428 10.95275369485902
    endloop
  endfacet
  facet normal 0 1 0
    outer loop
      vertex 94.84485519791025 9.503571428571428 4
      vertex 97.28913318052396 9.503571428571428 12.32821188441263
      vertex 98.03998482948856 9.503571428571428 13.50924680803224
    endloop
  endfacet
  facet normal 0 1 0
    outer loop
      vertex 94.84485519791025 9.503571428571428 4
      vertex 98.03998482948856 9.503571428571428 13.50924680803224
      vertex 98.85328828329051 9.503571428571428 14.477232839456311
    endloop
  endfacet
  facet normal 0 1 0
    outer loop
      vertex 94.84485519791025 9.503571428571428 4
      vertex 105.96001517051144 9.503571428571428 13.509246808032241
      vertex 106.71086681947604 9.503571428571428 12.328211884412626
    endloop
  endfacet
  facet normal 0 1 0
    outer loop
      vertex 94.84485519791025 9.503571428571428 4
      vertex 105.14671171670949 9.503571428571428 14.477232839456311
      vertex 105.96001517051144 9.503571428571428 13.509246808032241
    endloop
  endfacet
  facet normal -0.8973231943174705 0 0.44137408729998084
    outer loop
      vertex 96.61257471543794 5 10.952753694859016
      vertex 97.28913318052396 5 12.32821188441263
      vertex 97.28913318052396 9.503571428571428 12.32821188441263
    endloop
  endfacet
  facet normal -0.8973231943174705 0 0.44137408729998084
    outer loop
      vertex 96.61257471543794 5 10.952753694859016
      vertex 97.28913318052396 9.503571428571428 12.32821188441263
      vertex 96.61257471543794 9.503571428571428 10.952753694859016
    endloop
  endfacet
  facet normal -0.8438931473028551 0 0.5365112822068904
    outer loop
      vertex 97.28913318052396 5 12.32821188441263
      vertex 98.03998482948856 5 13.50924680803224
      vertex 98.03998482948856 9.503571428571428 13.50924680803224
    endloop
  endfacet
  facet normal -0.8438931473028551 0 0.5365112822068904
    outer loop
      vertex 97.28913318052396 5 12.32821188441263
      vertex 98.03998482948856 9.503571428571428 13.50924680803224
      vertex 97.28913318052396 9.503571428571428 12.32821188441263
    endloop
  endfacet
  facet normal 0 1 0
    outer loop
      vertex 94.84485519791025 9.503571428571428 4
      vertex 98.85328828329051 9.503571428571428 14.477232839456311
      vertex 99.71621726061944 9.503571428571428 15.216904260722456
    endloop
  endfacet
  facet normal 0 1 0
    outer loop
      vertex 94.84485519791025 9.503571428571428 4
      vertex 99.71621726061944 9.503571428571428 15.216904260722456
      vertex 100.61516285601407 9.503571428571428 15.71659601165902
    endloop
  endfacet
  facet normal 0 1 0
    outer loop
      vertex 94.84485519791025 9.503571428571428 4
      vertex 104.28378273938056 9.503571428571428 15.216904260722456
      vertex 105.14671171670949 9.503571428571428 14.477232839456311
    endloop
  endfacet
  facet normal 0 1 0
    outer loop
      vertex 94.84485519791025 9.503571428571428 4
      vertex 103.38483714398593 9.503571428571428 15.71659601165902
      vertex 104.28378273938056 9.503571428571428 15.216904260722456
    endloop
  endfacet
  facet normal 0 1 0
    outer loop
      vertex 94.84485519791025 9.503571428571428 4
      vertex 100.61516285601407 9.503571428571428 15.71659601165902
      vertex 101.53594816043098 9.503571428571428 15.968427654852345
    endloop
  endfacet
  facet normal 0 1 0
    outer loop
      vertex 94.84485519791025 9.503571428571428 4
      vertex 101.53594816043098 9.503571428571428 15.968427654852345
      vertex 102.46405183956902 9.503571428571428 15.968427654852345
    endloop
  endfacet
  facet normal 0 1 0
    outer loop
      vertex 94.84485519791025 9.503571428571428 4
      vertex 102.46405183956902 9.503571428571428 15.968427654852345
      vertex 103.38483714398593 9.503571428571428 15.71659601165902
    endloop
  endfacet
  facet normal -0.7656288262732331 0 0.6432825976034727
    outer loop
      vertex 98.03998482948856 5 13.50924680803224
      vertex 98.85328828329051 9.503571428571428 14.477232839456311
      vertex 98.03998482948856 9.503571428571428 13.50924680803224
    endloop
  endfacet
  facet normal -0.7656288262732331 0 0.6432825976034727
    outer loop
      vertex 98.03998482948856 5 13.50924680803224
      vertex 98.85328828329051 5 14.477232839456311
      vertex 98.85328828329051 9.503571428571428 14.477232839456311
    endloop
  endfacet
  facet normal -0.6508005093059932 0 0.7592487715413572
    outer loop
      vertex 98.85328828329051 5 14.477232839456311
      vertex 99.71621726061944 5 15.216904260722456
      vertex 99.71621726061944 9.503571428571428 15.216904260722456
    endloop
  endfacet
  facet normal -0.6508005093059932 0 0.7592487715413572
    outer loop
      vertex 98.85328828329051 5 14.477232839456311
      vertex 99.71621726061944 9.503571428571428 15.216904260722456
      vertex 98.85328828329051 9.503571428571428 14.477232839456311
    endloop
  endfacet
  facet normal 0.6508005093059932 0 0.7592487715413572
    outer loop
      vertex 105.14671171670949 5 14.477232839456311
      vertex 105.14671171670949 9.503571428571428 14.477232839456311
      vertex 104.28378273938056 5 15.216904260722456
    endloop
  endfacet
  facet normal 0.6508005093059932 0 0.7592487715413572
    outer loop
      vertex 105.14671171670949 9.503571428571428 14.477232839456311
      vertex 104.28378273938056 9.503571428571428 15.216904260722456
      vertex 104.28378273938056 5 15.216904260722456
    endloop
  endfacet
  facet normal -0.48584911845539897 0 0.8740426958084553
    outer loop
      vertex 99.71621726061944 5 15.216904260722456
      vertex 100.61516285601407 5 15.71659601165902
      vertex 100.61516285601407 9.503571428571428 15.71659601165902
    endloop
  endfacet
  facet normal -0.26380803129628205 0 0.9645752031975422
    outer loop
      vertex 100.61516285601407 5 15.71659601165902
      vertex 101.53594816043098 5 15.968427654852345
      vertex 101.53594816043098 9.503571428571428 15.968427654852345
    endloop
  endfacet
  facet normal -0.48584911845539897 0 0.8740426958084553
    outer loop
      vertex 99.71621726061944 5 15.216904260722456
      vertex 100.61516285601407 9.503571428571428 15.71659601165902
      vertex 99.71621726061944 9.503571428571428 15.216904260722456
    endloop
  endfacet
  facet normal -0.26380803129628205 0 0.9645752031975422
    outer loop
      vertex 100.61516285601407 5 15.71659601165902
      vertex 101.53594816043098 9.503571428571428 15.968427654852345
      vertex 100.61516285601407 9.503571428571428 15.71659601165902
    endloop
  endfacet
  facet normal 0.48584911845539897 0 0.8740426958084553
    outer loop
      vertex 104.28378273938056 5 15.216904260722456
      vertex 104.28378273938056 9.503571428571428 15.216904260722456
      vertex 103.38483714398593 5 15.71659601165902
    endloop
  endfacet
  facet normal 0.26380803129628205 0 0.9645752031975422
    outer loop
      vertex 103.38483714398593 5 15.71659601165902
      vertex 103.38483714398593 9.503571428571428 15.71659601165902
      vertex 102.46405183956902 5 15.968427654852345
    endloop
  endfacet
  facet normal 0 0 1
    outer loop
      vertex 101.53594816043098 5 15.968427654852345
      vertex 102.46405183956902 5 15.968427654852345
      vertex 102.46405183956902 9.503571428571428 15.968427654852345
    endloop
  endfacet
  facet normal 0.48584911845539897 0 0.8740426958084553
    outer loop
      vertex 103.38483714398593 5 15.71659601165902
      vertex 104.28378273938056 9.503571428571428 15.216904260722456
      vertex 103.38483714398593 9.503571428571428 15.71659601165902
    endloop
  endfacet
  facet normal 0 0 1
    outer loop
      vertex 101.53594816043098 5 15.968427654852345
      vertex 102.46405183956902 9.503571428571428 15.968427654852345
      vertex 101.53594816043098 9.503571428571428 15.968427654852345
    endloop
  endfacet
  facet normal 0.26380803129628205 0 0.9645752031975422
    outer loop
      vertex 102.46405183956902 5 15.968427654852345
      vertex 103.38483714398593 9.503571428571428 15.71659601165902
      vertex 102.46405183956902 9.503571428571428 15.968427654852345
    endloop
  endfacet
  facet normal 0 -1 0
    outer loop
      vertex 109.33220007828605 5 2.005331737028868
      vertex 109.15829079081732 5 3.9790381946376767
      vertex 109.39047619047618 5 0
    endloop
  endfacet
  facet normal 0 -1 0
    outer loop
      vertex 109.15829079081732 5 3.9790381946376767
      vertex 109.15514480208974 5 4
      vertex 109.39047619047618 5 0
    endloop
  endfacet
  facet normal 0 -1 0
    outer loop
      vertex 109.15514480208974 5 4
      vertex 108.87149098142174 5 5.889992842954848
      vertex 109.39047619047618 5 0
    endloop
  endfacet
  facet normal 0 -1 0
    outer loop
      vertex 108.87149098142174 5 5.889992842954848
      vertex 108.47632365441942 5 7.708058785627445
      vertex 109.39047619047618 5 0
    endloop
  endfacet
  facet normal 0.988924460122356 0 0.1484197162499204
    outer loop
      vertex 109.15514480208974 5 4
      vertex 109.15514480208974 9.503571428571428 4
      vertex 108.87149098142174 5 5.889992842954848
    endloop
  endfacet
  facet normal 0.988924460122356 0 0.1484197162499204
    outer loop
      vertex 109.15514480208974 9.503571428571428 4
      vertex 108.87149098142174 9.503571428571428 5.889992842954848
      vertex 108.87149098142174 5 5.889992842954848
    endloop
  endfacet
  facet normal 0 -1 0
    outer loop
      vertex 108.47632365441942 5 7.708058785627445
      vertex 107.97902083461865 5 9.40456403667957
      vertex 109.39047619047618 5 0
    endloop
  endfacet
  facet normal 0 -1 0
    outer loop
      vertex 107.97902083461865 5 9.40456403667957
      vertex 107.38742528456204 5 10.95275369485902
      vertex 109.39047619047618 5 0
    endloop
  endfacet
  facet normal 0.977183548552948 0 0.2123965923395858
    outer loop
      vertex 108.87149098142174 5 5.889992842954848
      vertex 108.87149098142174 9.503571428571428 5.889992842954848
      vertex 108.47632365441942 9.503571428571428 7.708058785627445
    endloop
  endfacet
  facet normal 0.977183548552948 0 0.2123965923395858
    outer loop
      vertex 108.87149098142174 5 5.889992842954848
      vertex 108.47632365441942 9.503571428571428 7.708058785627445
      vertex 108.47632365441942 5 7.708058785627445
    endloop
  endfacet
  facet normal 0 -1 0
    outer loop
      vertex 107.38742528456204 5 10.95275369485902
      vertex 106.71086681947604 5 12.328211884412626
      vertex 109.39047619047618 5 0
    endloop
  endfacet
  facet normal 0 -1 0
    outer loop
      vertex 106.71086681947604 5 12.328211884412626
      vertex 105.96001517051144 5 13.509246808032241
      vertex 109.39047619047618 5 0
    endloop
  endfacet
  facet normal 0.9596207141656197 0 0.2812971470603036
    outer loop
      vertex 108.47632365441942 5 7.708058785627445
      vertex 108.47632365441942 9.503571428571428 7.708058785627445
      vertex 107.97902083461865 9.503571428571428 9.40456403667957
    endloop
  endfacet
  facet normal 0.9596207141656197 0 0.2812971470603036
    outer loop
      vertex 108.47632365441942 5 7.708058785627445
      vertex 107.97902083461865 9.503571428571428 9.40456403667957
      vertex 107.97902083461865 5 9.40456403667957
    endloop
  endfacet
  facet normal 0 -1 0
    outer loop
      vertex 105.96001517051144 5 13.509246808032241
      vertex 105.14671171670949 5 14.477232839456311
      vertex 109.39047619047618 5 0
    endloop
  endfacet
  facet normal 0 -1 0
    outer loop
      vertex 105.14671171670949 5 14.477232839456311
      vertex 104.28378273938056 5 15.216904260722456
      vertex 109.39047619047618 5 0
    endloop
  endfacet
  facet normal 0.9341241371793881 0 0.3569483104580602
    outer loop
      vertex 107.97902083461865 5 9.40456403667957
      vertex 107.97902083461865 9.503571428571428 9.40456403667957
      vertex 107.38742528456204 9.503571428571428 10.95275369485902
    endloop
  endfacet
  facet normal 0 -1 0
    outer loop
      vertex 104.28378273938056 5 15.216904260722456
      vertex 103.38483714398593 5 15.71659601165902
      vertex 109.39047619047618 5 0
    endloop
  endfacet
  facet normal 0 -1 0
    outer loop
      vertex 103.38483714398593 5 15.71659601165902
      vertex 102.46405183956902 5 15.968427654852345
      vertex 109.39047619047618 5 0
    endloop
  endfacet
  facet normal 0.9341241371793881 0 0.3569483104580602
    outer loop
      vertex 107.97902083461865 5 9.40456403667957
      vertex 107.38742528456204 9.503571428571428 10.95275369485902
      vertex 107.38742528456204 5 10.95275369485902
    endloop
  endfacet
  facet normal 0.8973231943174733 0 0.4413740872999752
    outer loop
      vertex 107.38742528456204 5 10.95275369485902
      vertex 107.38742528456204 9.503571428571428 10.95275369485902
      vertex 106.71086681947604 5 12.328211884412626
    endloop
  endfacet
  facet normal 0.8973231943174733 0 0.4413740872999752
    outer loop
      vertex 107.38742528456204 9.503571428571428 10.95275369485902
      vertex 106.71086681947604 9.503571428571428 12.328211884412626
      vertex 106.71086681947604 5 12.328211884412626
    endloop
  endfacet
  facet normal 0.8438931473028563 0 0.5365112822068887
    outer loop
      vertex 106.71086681947604 5 12.328211884412626
      vertex 106.71086681947604 9.503571428571428 12.328211884412626
      vertex 105.96001517051144 5 13.509246808032241
    endloop
  endfacet
  facet normal 0.8438931473028563 0 0.5365112822068887
    outer loop
      vertex 106.71086681947604 9.503571428571428 12.328211884412626
      vertex 105.96001517051144 9.503571428571428 13.509246808032241
      vertex 105.96001517051144 5 13.509246808032241
    endloop
  endfacet
  facet normal 0.7656288262732326 0 0.6432825976034735
    outer loop
      vertex 105.96001517051144 5 13.509246808032241
      vertex 105.96001517051144 9.503571428571428 13.509246808032241
      vertex 105.14671171670949 5 14.477232839456311
    endloop
  endfacet
  facet normal 0.7656288262732326 0 0.6432825976034735
    outer loop
      vertex 105.96001517051144 9.503571428571428 13.509246808032241
      vertex 105.14671171670949 9.503571428571428 14.477232839456311
      vertex 105.14671171670949 5 14.477232839456311
    endloop
  endfacet
  facet normal 0 -1 0
    outer loop
      vertex 5 5 4
      vertex 5 5 0
      vertex 94.60952380952381 5 0
    endloop
  endfacet
  facet normal 0 0 1
    outer loop
      vertex 5 5 4
      vertex 94.84485519791025 5 4
      vertex 9.85 9.85 4
    endloop
  endfacet
  facet normal -1 0 0
    outer loop
      vertex 5 5 4
      vertex 5 131.1 4
      vertex 5 5 0
    endloop
  endfacet
  facet normal 0 0 1
    outer loop
      vertex 5 5 4
      vertex 9.85 9.85 4
      vertex 9.85 126.94285714285715 4
    endloop
  endfacet
  facet normal 0 -1 0
    outer loop
      vertex 5 5 4
      vertex 94.60952380952381 5 0
      vertex 94.66779992171396 5 2.005331737028865
    endloop
  endfacet
  facet normal 0 -1 0
    outer loop
      vertex 5 5 4
      vertex 94.66779992171396 5 2.005331737028865
      vertex 94.8417092091827 5 3.9790381946376776
    endloop
  endfacet
  facet normal 0 -1 0
    outer loop
      vertex 5 5 4
      vertex 94.8417092091827 5 3.9790381946376776
      vertex 94.84485519791025 5 4
    endloop
  endfacet
  facet normal 0 0 1
    outer loop
      vertex 9.85 9.85 4
      vertex 94.84485519791025 5 4
      vertex 94.84485519791025 9.503571428571428 4
    endloop
  endfacet
  facet normal 0 0 1
    outer loop
      vertex 9.85 9.85 4
      vertex 94.84485519791025 9.503571428571428 4
      vertex 109.15514480208974 9.503571428571428 4
    endloop
  endfacet
  facet normal 0 0 1
    outer loop
      vertex 9.85 9.85 4
      vertex 109.15514480208974 9.503571428571428 4
      vertex 194.61190476190475 9.85 4
    endloop
  endfacet
  facet normal -1 0 0
    outer loop
      vertex 5 131.1 4
      vertex 5 131.1 0
      vertex 5 5 0
    endloop
  endfacet
  facet normal 0 0 1
    outer loop
      vertex 5 5 4
      vertex 9.85 126.94285714285715 4
      vertex 5 131.1 4
    endloop
  endfacet
  facet normal 0 1 0
    outer loop
      vertex 5 131.1 4
      vertex 94.60952380952381 131.1 0
      vertex 5 131.1 0
    endloop
  endfacet
  facet normal 0 0 1
    outer loop
      vertex 9.85 126.94285714285715 4
      vertex 94.84485519791025 126.94285714285715 4
      vertex 5 131.1 4
    endloop
  endfacet
  facet normal 0 1 0
    outer loop
      vertex 5 131.1 4
      vertex 94.66779992171396 131.1 2.005331737028865
      vertex 94.60952380952381 131.1 0
    endloop
  endfacet
  facet normal 0 1 0
    outer loop
      vertex 5 131.1 4
      vertex 94.8417092091827 131.1 3.9790381946376776
      vertex 94.66779992171396 131.1 2.005331737028865
    endloop
  endfacet
  facet normal 0 0 1
    outer loop
      vertex 5 131.1 4
      vertex 94.84485519791025 126.94285714285715 4
      vertex 94.84485519791025 131.1 4
    endloop
  endfacet
  facet normal 0 1 0
    outer loop
      vertex 5 131.1 4
      vertex 94.84485519791025 131.1 4
      vertex 94.8417092091827 131.1 3.9790381946376776
    endloop
  endfacet
  facet normal 0 -1 0
    outer loop
      vertex 109.33220007828605 5 2.005331737028868
      vertex 109.39047619047618 5 0
      vertex 199 5 4
    endloop
  endfacet
  facet normal 0 -1 0
    outer loop
      vertex 109.33220007828605 5 2.005331737028868
      vertex 199 5 4
      vertex 109.15829079081732 5 3.9790381946376767
    endloop
  endfacet
  facet normal 0 -1 0
    outer loop
      vertex 109.15829079081732 5 3.9790381946376767
      vertex 199 5 4
      vertex 109.15514480208974 5 4
    endloop
  endfacet
  facet normal 0 0 1
    outer loop
      vertex 109.15514480208974 5 4
      vertex 199 5 4
      vertex 109.15514480208974 9.503571428571428 4
    endloop
  endfacet
  facet normal 0 -1 0
    outer loop
      vertex 199 5 4
      vertex 109.39047619047618 5 0
      vertex 199 5 0
    endloop
  endfacet
  facet normal 0 0 1
    outer loop
      vertex 109.15514480208974 9.503571428571428 4
      vertex 199 5 4
      vertex 194.61190476190475 9.85 4
    endloop
  endfacet
  facet normal 1 0 0
    outer loop
      vertex 199 5 4
      vertex 199 5 0
      vertex 199 131.1 0
    endloop
  endfacet
  facet normal 0 0 1
    outer loop
      vertex 199 5 4
      vertex 199 131.1 4
      vertex 194.61190476190475 9.85 4
    endloop
  endfacet
  facet normal 0 1 0
    outer loop
      vertex 109.33220007828605 131.1 2.005331737028868
      vertex 199 131.1 4
      vertex 109.39047619047618 131.1 0
    endloop
  endfacet
  facet normal 0 0 1
    outer loop
      vertex 109.15514480208974 126.94285714285715 4
      vertex 194.61190476190475 126.94285714285715 4
      vertex 109.15514480208974 131.1 4
    endloop
  endfacet
  facet normal 0 1 0
    outer loop
      vertex 109.33220007828605 131.1 2.005331737028868
      vertex 109.15829079081732 131.1 3.9790381946376767
      vertex 199 131.1 4
    endloop
  endfacet
  facet normal 0 1 0
    outer loop
      vertex 109.15829079081732 131.1 3.9790381946376767
      vertex 109.15514480208974 131.1 4
      vertex 199 131.1 4
    endloop
  endfacet
  facet normal 1 0 0
    outer loop
      vertex 199 5 4
      vertex 199 131.1 0
      vertex 199 131.1 4
    endloop
  endfacet
  facet normal 0 0 1
    outer loop
      vertex 194.61190476190475 9.85 4
      vertex 199 131.1 4
      vertex 194.61190476190475 126.94285714285715 4
    endloop
  endfacet
  facet normal 0 1 0
    outer loop
      vertex 199 131.1 4
      vertex 199 131.1 0
      vertex 109.39047619047618 131.1 0
    endloop
  endfacet
  facet normal 0 0 1
    outer loop
      vertex 109.15514480208974 131.1 4
      vertex 194.61190476190475 126.94285714285715 4
      vertex 199 131.1 4
    endloop
  endfacet
  facet normal 1 0 0
    outer loop
      vertex 9.85 9.85 4
      vertex 9.85 9.85 0
      vertex 9.85 126.94285714285715 4
    endloop
  endfacet
  facet normal 0 1 0
    outer loop
      vertex 9.85 9.85 4
      vertex 194.61190476190475 9.85 0
      vertex 9.85 9.85 0
    endloop
  endfacet
  facet normal 1 0 0
    outer loop
      vertex 9.85 126.94285714285715 4
      vertex 9.85 9.85 0
      vertex 9.85 126.94285714285715 0
    endloop
  endfacet
  facet normal 0 -1 0
    outer loop
      vertex 9.85 126.94285714285715 4
      vertex 9.85 126.94285714285715 0
      vertex 94.84485519791025 126.94285714285715 4
    endloop
  endfacet
  facet normal 0 -1 0
    outer loop
      vertex 94.84485519791025 126.94285714285715 4
      vertex 9.85 126.94285714285715 0
      vertex 109.15514480208974 126.94285714285715 4
    endloop
  endfacet
  facet normal 0 -1 0
    outer loop
      vertex 109.15514480208974 126.94285714285715 4
      vertex 9.85 126.94285714285715 0
      vertex 194.61190476190475 126.94285714285715 4
    endloop
  endfacet
  facet normal 0 -1 0
    outer loop
      vertex 94.84485519791025 126.94285714285715 4
      vertex 109.15514480208974 126.94285714285715 4
      vertex 95.12850901857827 126.94285714285715 5.889992842954846
    endloop
  endfacet
  facet normal 0 -1 0
    outer loop
      vertex 95.12850901857827 126.94285714285715 5.889992842954846
      vertex 109.15514480208974 126.94285714285715 4
      vertex 108.87149098142174 126.94285714285715 5.889992842954848
    endloop
  endfacet
  facet normal 0 -1 0
    outer loop
      vertex 95.12850901857827 126.94285714285715 5.889992842954846
      vertex 108.87149098142174 126.94285714285715 5.889992842954848
      vertex 95.52367634558058 126.94285714285715 7.708058785627446
    endloop
  endfacet
  facet normal 0 -1 0
    outer loop
      vertex 95.52367634558058 126.94285714285715 7.708058785627446
      vertex 108.87149098142174 126.94285714285715 5.889992842954848
      vertex 108.47632365441942 126.94285714285715 7.708058785627445
    endloop
  endfacet
  facet normal 0 -1 0
    outer loop
      vertex 95.52367634558058 126.94285714285715 7.708058785627446
      vertex 108.47632365441942 126.94285714285715 7.708058785627445
      vertex 96.02097916538135 126.94285714285715 9.40456403667957
    endloop
  endfacet
  facet normal 0 -1 0
    outer loop
      vertex 96.02097916538135 126.94285714285715 9.40456403667957
      vertex 108.47632365441942 126.94285714285715 7.708058785627445
      vertex 107.97902083461865 126.94285714285715 9.40456403667957
    endloop
  endfacet
  facet normal 0 0 -1
    outer loop
      vertex 96.24850766254121 126.59642857142858 10
      vertex 96.24850766254121 126.94285714285715 10
      vertex 107.75149233745877 126.59642857142858 10
    endloop
  endfacet
  facet normal 0 0 -1
    outer loop
      vertex 96.24850766254121 126.94285714285715 10
      vertex 107.75149233745876 126.94285714285715 10
      vertex 107.75149233745877 126.59642857142858 10
    endloop
  endfacet
  facet normal 0 -1 0
    outer loop
      vertex 96.02097916538135 126.94285714285715 9.40456403667957
      vertex 107.97902083461865 126.94285714285715 9.40456403667957
      vertex 96.24850766254121 126.94285714285715 10
    endloop
  endfacet
  facet normal 0 -1 0
    outer loop
      vertex 96.24850766254121 126.94285714285715 10
      vertex 107.97902083461865 126.94285714285715 9.40456403667957
      vertex 107.75149233745876 126.94285714285715 10
    endloop
  endfacet
  facet normal 0 1 0
    outer loop
      vertex 9.85 9.85 4
      vertex 194.61190476190475 9.85 4
      vertex 194.61190476190475 9.85 0
    endloop
  endfacet
  facet normal -1 0 0
    outer loop
      vertex 194.61190476190475 9.85 4
      vertex 194.61190476190475 126.94285714285715 0
      vertex 194.61190476190475 9.85 0
    endloop
  endfacet
  facet normal 0 -1 0
    outer loop
      vertex 194.61190476190475 126.94285714285715 4
      vertex 9.85 126.94285714285715 0
      vertex 194.61190476190475 126.94285714285715 0
    endloop
  endfacet
  facet normal -1 0 0
    outer loop
      vertex 194.61190476190475 9.85 4
      vertex 194.61190476190475 126.94285714285715 4
      vertex 194.61190476190475 126.94285714285715 0
    endloop
  endfacet
  facet normal 0 0 1
    outer loop
      vertex 0 0 0
      vertex 94.60952380952381 5 0
      vertex 5 5 0
    endloop
  endfacet
  facet normal -1 0 0
    outer loop
      vertex 0 0 -5
      vertex 0 0 0
      vertex 0 140 0
    endloop
  endfacet
  facet normal 0 0 1
    outer loop
      vertex 0 0 0
      vertex 5 5 0
      vertex 5 131.1 0
    endloop
  endfacet
  facet normal 0 -1 0
    outer loop
      vertex 0 0 -5
      vertex 210 0 0
      vertex 0 0 0
    endloop
  endfacet
  facet normal 0 0 1
    outer loop
      vertex 0 0 0
      vertex 210 0 0
      vertex 94.60952380952381 5 0
    endloop
  endfacet
  facet normal -1 0 0
    outer loop
      vertex 0 0 -5
      vertex 0 140 0
      vertex 0 140 -5
    endloop
  endfacet
  facet normal 0 0 1
    outer loop
      vertex 0 0 0
      vertex 5 131.1 0
      vertex 0 140 0
    endloop
  endfacet
  facet normal 0 0 1
    outer loop
      vertex 0 140 0
      vertex 5 131.1 0
      vertex 94.60952380952381 131.1 0
    endloop
  endfacet
  facet normal 0 0 -1
    outer loop
      vertex 0 0 -5
      vertex 0 140 -5
      vertex 210 140 -5
    endloop
  endfacet
  facet normal 0 0 1
    outer loop
      vertex 9.85 126.94285714285715 0
      vertex 9.85 9.85 0
      vertex 194.61190476190475 126.94285714285715 0
    endloop
  endfacet
  facet normal 0 1 0
    outer loop
      vertex 0 140 -5
      vertex 0 140 0
      vertex 210 140 -5
    endloop
  endfacet
  facet normal 0 0 1
    outer loop
      vertex 0 140 0
      vertex 94.60952380952381 131.1 0
      vertex 109.39047619047618 131.1 0
    endloop
  endfacet
  facet normal 0 -1 0
    outer loop
      vertex 0 0 -5
      vertex 210 0 -5
      vertex 210 0 0
    endloop
  endfacet
  facet normal 0 0 1
    outer loop
      vertex 210 0 0
      vertex 109.39047619047618 5 0
      vertex 94.60952380952381 5 0
    endloop
  endfacet
  facet normal 0 0 -1
    outer loop
      vertex 0 0 -5
      vertex 210 140 -5
      vertex 210 0 -5
    endloop
  endfacet
  facet normal 0 0 1
    outer loop
      vertex 194.61190476190475 126.94285714285715 0
      vertex 9.85 9.85 0
      vertex 194.61190476190475 9.85 0
    endloop
  endfacet
  facet normal 0 0 1
    outer loop
      vertex 210 0 0
      vertex 199 5 0
      vertex 109.39047619047618 5 0
    endloop
  endfacet
  facet normal 1 0 0
    outer loop
      vertex 210 0 -5
      vertex 210 140 -5
      vertex 210 0 0
    endloop
  endfacet
  facet normal 0 0 1
    outer loop
      vertex 210 0 0
      vertex 210 140 0
      vertex 199 5 0
    endloop
  endfacet
  facet normal 0 0 1
    outer loop
      vertex 0 140 0
      vertex 109.39047619047618 131.1 0
      vertex 210 140 0
    endloop
  endfacet
  facet normal 0 1 0
    outer loop
      vertex 0 140 0
      vertex 210 140 0
      vertex 210 140 -5
    endloop
  endfacet
  facet normal 1 0 0
    outer loop
      vertex 210 0 0
      vertex 210 140 -5
      vertex 210 140 0
    endloop
  endfacet
  facet normal 0 0 1
    outer loop
      vertex 210 140 0
      vertex 199 131.1 0
      vertex 199 5 0
    endloop
  endfacet
  facet normal 0 0 1
    outer loop
      vertex 210 140 0
      vertex 109.39047619047618 131.1 0
      vertex 199 131.1 0
    endloop
  endfacet
endsolid OpenSCAD_Model
